<mxfile host="65bd71144e">
    <diagram id="hvvh-I_KThmvMKlujzFm" name="Page-1">
        <mxGraphModel dx="1429" dy="947" grid="1" gridSize="10" guides="1" tooltips="1" connect="1" arrows="1" fold="1" page="1" pageScale="1" pageWidth="827" pageHeight="1169" background="none" math="0" shadow="0">
            <root>
                <mxCell id="0"/>
                <mxCell id="1" parent="0"/>
                <mxCell id="2" value="Logo" style="whiteSpace=wrap;html=1;aspect=fixed;" parent="1" vertex="1">
                    <mxGeometry x="40" y="40" width="120" height="120" as="geometry"/>
                </mxCell>
                <mxCell id="6" value="" style="rounded=0;whiteSpace=wrap;html=1;fontSize=14;" parent="1" vertex="1">
                    <mxGeometry x="560" y="40" width="240" height="60" as="geometry"/>
                </mxCell>
                <mxCell id="7" value="Not a Member?" style="rounded=0;whiteSpace=wrap;html=1;shadow=0;fontSize=14;" parent="1" vertex="1">
                    <mxGeometry x="560" y="55" width="120" height="30" as="geometry"/>
                </mxCell>
                <mxCell id="8" value="Sign in" style="whiteSpace=wrap;html=1;shadow=0;fontSize=14;" parent="1" vertex="1">
                    <mxGeometry x="680" y="55" width="120" height="30" as="geometry"/>
                </mxCell>
                <mxCell id="9" value="Div Container fÃ¼r Sign in&lt;br&gt;" style="text;html=1;align=center;verticalAlign=middle;resizable=0;points=[];autosize=1;strokeColor=none;fillColor=none;fontSize=14;shadow=0;" parent="1" vertex="1">
                    <mxGeometry x="610" width="180" height="30" as="geometry"/>
                </mxCell>
                <mxCell id="10" value="" style="endArrow=classic;startArrow=classic;html=1;fontSize=14;exitX=-0.013;exitY=0.428;exitDx=0;exitDy=0;exitPerimeter=0;entryX=0.081;entryY=-0.078;entryDx=0;entryDy=0;entryPerimeter=0;" parent="1" source="9" target="6" edge="1">
                    <mxGeometry width="50" height="50" relative="1" as="geometry">
                        <mxPoint x="510" y="60" as="sourcePoint"/>
                        <mxPoint x="460" y="90" as="targetPoint"/>
                    </mxGeometry>
                </mxCell>
                <mxCell id="11" value="" style="whiteSpace=wrap;html=1;aspect=fixed;shadow=0;fontSize=14;" parent="1" vertex="1">
                    <mxGeometry x="200" y="200" width="450" height="450" as="geometry"/>
                </mxCell>
                <mxCell id="21" value="E-Mail" style="rounded=1;whiteSpace=wrap;html=1;shadow=0;fontSize=14;" parent="1" vertex="1">
                    <mxGeometry x="260" y="410" width="330" height="30" as="geometry"/>
                </mxCell>
                <mxCell id="22" value="Passwort" style="rounded=1;whiteSpace=wrap;html=1;shadow=0;fontSize=14;" parent="1" vertex="1">
                    <mxGeometry x="260" y="470" width="330" height="30" as="geometry"/>
                </mxCell>
                <mxCell id="23" value="Log in&amp;nbsp;" style="text;html=1;strokeColor=none;fillColor=none;align=center;verticalAlign=middle;whiteSpace=wrap;rounded=0;shadow=0;fontSize=50;" parent="1" vertex="1">
                    <mxGeometry x="342" y="270" width="166" height="80" as="geometry"/>
                </mxCell>
                <mxCell id="24" value="" style="rounded=1;whiteSpace=wrap;html=1;shadow=0;fontSize=50;" parent="1" vertex="1">
                    <mxGeometry x="310" y="550" width="86" height="35" as="geometry"/>
                </mxCell>
                <mxCell id="25" value="" style="rounded=1;whiteSpace=wrap;html=1;shadow=0;fontSize=50;" parent="1" vertex="1">
                    <mxGeometry x="460" y="550" width="86" height="35" as="geometry"/>
                </mxCell>
            </root>
        </mxGraphModel>
    </diagram>
</mxfile>